<svg xmlns="http://www.w3.org/2000/svg" width="24" height="24" viewBox="0 0 24 24" fill="none">
<path d="M10 16H14C14.55 16 15 15.55 15 15V9.99998H16.59C17.48 9.99998 17.93 8.91998 17.3 8.28998L12.71 3.69998C12.6175 3.60727 12.5076 3.53372 12.3866 3.48354C12.2657 3.43336 12.136 3.40753 12.005 3.40753C11.874 3.40753 11.7443 3.43336 11.6234 3.48354C11.5024 3.53372 11.3925 3.60727 11.3 3.69998L6.71 8.28998C6.08 8.91998 6.52 9.99998 7.41 9.99998H9V15C9 15.55 9.45 16 10 16ZM6 18H18C18.55 18 19 18.45 19 19C19 19.55 18.55 20 18 20H6C5.45 20 5 19.55 5 19C5 18.45 5.45 18 6 18Z" fill="white"/>
</svg>